<?xml version="1.0" standalone="no"?>
<!DOCTYPE svg PUBLIC "-//W3C//DTD SVG 20010904//EN"
 "http://www.w3.org/TR/2001/REC-SVG-20010904/DTD/svg10.dtd">
<svg version="1.0" xmlns="http://www.w3.org/2000/svg"
 width="150.000000pt" height="150.000000pt" viewBox="0 0 150.000000 150.000000"
 preserveAspectRatio="xMidYMid meet">
<metadata>
Created by potrace 1.11, written by Peter Selinger 2001-2013
</metadata>
<g transform="translate(0.000000,150.000000) scale(0.100000,-0.100000)"
fill="#000000" stroke="none">
<path d="M230 745 l0 -525 95 0 95 0 2 329 3 330 163 -126 c90 -68 168 -122
175 -119 7 3 82 59 167 125 l155 119 3 -329 2 -329 95 0 95 0 0 526 c0 417 -3
524 -12 518 -10 -6 -428 -325 -503 -385 -6 -4 -120 77 -269 192 -142 109 -260
199 -262 199 -2 0 -4 -236 -4 -525z"/>
</g>
</svg>
